<svg xmlns="http://www.w3.org/2000/svg" viewBox="0 0 200 40" fill="none">
  <!-- Icon: stylized face scan -->
  <rect x="2" y="2" width="36" height="36" rx="10" stroke="#2563eb" stroke-width="2.5" fill="none"/>
  <path d="M12 8h-2a2 2 0 0 0-2 2v2" stroke="#2563eb" stroke-width="2" stroke-linecap="round"/>
  <path d="M28 8h2a2 2 0 0 1 2 2v2" stroke="#2563eb" stroke-width="2" stroke-linecap="round"/>
  <path d="M12 32h-2a2 2 0 0 1-2-2v-2" stroke="#2563eb" stroke-width="2" stroke-linecap="round"/>
  <path d="M28 32h2a2 2 0 0 0 2-2v-2" stroke="#2563eb" stroke-width="2" stroke-linecap="round"/>
  <!-- Face circle -->
  <circle cx="20" cy="18" r="6" stroke="#2563eb" stroke-width="1.5" fill="none"/>
  <!-- Scan line -->
  <line x1="10" y1="28" x2="30" y2="28" stroke="#60a5fa" stroke-width="1.5" stroke-linecap="round" stroke-dasharray="2 2"/>
  <!-- Text -->
  <text x="46" y="27" font-family="Nunito, sans-serif" font-weight="800" font-size="22" fill="#1e293b">marc</text>
  <text x="106" y="27" font-family="Nunito, sans-serif" font-weight="800" font-size="22" fill="#2563eb">ai</text>
</svg>
